<svg width="124" height="56" viewBox="0 0 124 56" fill="none" xmlns="http://www.w3.org/2000/svg">
    <g clip-path="url(#clip0_41_881)">
    <path d="M32.7847 29.8005L31.0021 28.0179L32.7847 26.2353C33.5803 25.4551 34.1205 24.4521 34.3341 23.3585C34.5477 22.2649 34.4247 21.1323 33.9812 20.1101C33.5377 19.0879 32.7946 18.2243 31.8501 17.6332C30.9055 17.0421 29.8039 16.7514 28.6907 16.7994C28.6907 16.7341 28.6907 16.6687 28.6907 16.6034C28.6903 15.5138 28.367 14.4488 27.7618 13.5428C27.1567 12.6368 26.2966 11.9304 25.2903 11.5127C24.284 11.0951 23.1765 10.9849 22.1076 11.1961C21.0387 11.4073 20.0564 11.9305 19.2846 12.6995L17.502 14.4821L15.7194 12.6995C15.2071 12.1849 14.5985 11.7762 13.9283 11.4968C13.2581 11.2174 12.5394 11.0727 11.8133 11.0711C10.3468 11.0677 8.93905 11.6471 7.89974 12.6816C6.86042 13.7162 6.27467 15.1213 6.27132 16.5878C6.26798 18.0542 6.84733 19.462 7.88191 20.5013L9.66451 22.2839L6.08149 25.9025L6.04584 25.8669L4.26325 24.0843C3.78646 23.6064 3.5187 22.9589 3.5187 22.2839C3.5187 21.6088 3.78646 20.9613 4.26325 20.4835L2.17761 18.4038C1.14422 19.4378 0.563713 20.8398 0.563713 22.3017C0.563713 23.7636 1.14422 25.1656 2.17761 26.1996L3.80571 27.8277L2.02312 29.6103C1.51054 30.1224 1.10391 30.7305 0.826481 31.3999C0.549048 32.0692 0.40625 32.7867 0.40625 33.5113C0.40625 34.2358 0.549048 34.9533 0.826481 35.6226C1.10391 36.292 1.51054 36.9001 2.02312 37.4122L7.8938 43.2828C8.93035 44.3137 10.3328 44.8923 11.7947 44.8923C13.2566 44.8923 14.6591 44.3137 15.6956 43.2828L17.4782 41.5002L19.2608 43.2828C20.293 44.3198 21.6949 44.9042 23.158 44.9076C24.6211 44.9109 26.0257 44.3329 27.0626 43.3007C28.0996 42.2684 28.684 40.8666 28.6873 39.4034C28.6907 37.9403 28.1127 36.5358 27.0804 35.4988L25.2978 33.7162L28.863 30.1511L30.6456 31.9337C31.1116 32.41 31.3726 33.0499 31.3726 33.7162C31.3726 34.3826 31.1116 35.0225 30.6456 35.4988L32.7491 37.6023C33.7876 36.572 34.3747 35.1716 34.3814 33.7088C34.388 32.2459 33.8138 30.8402 32.7847 29.8005ZM19.5817 28.0179L23.1825 24.423L26.7833 28.0179L23.1825 31.6187L19.5817 28.0179ZM21.079 33.7162L17.4841 37.3171L13.8833 33.6984L17.4841 30.1332L21.079 33.7162ZM17.4841 18.7009L21.079 22.3017L17.4841 25.9025L13.8833 22.3017L17.4841 18.7009ZM11.7858 24.4052L15.351 28.0001L11.7858 31.6009L8.18495 28.0001L10.0804 26.1046L11.7858 24.4052ZM30.6991 20.5013C31.1759 20.9792 31.4437 21.6267 31.4437 22.3017C31.4437 22.9768 31.1759 23.6242 30.6991 24.1021L28.9165 25.8847L25.3513 22.2839L27.1339 20.5013C27.6103 20.0353 28.2501 19.7744 28.9165 19.7744C29.5829 19.7744 30.2228 20.0353 30.6991 20.5013ZM21.3821 14.8029C21.86 14.3261 22.5075 14.0584 23.1825 14.0584C23.8576 14.0584 24.505 14.3261 24.9829 14.8029C25.4583 15.2816 25.725 15.9288 25.725 16.6034C25.725 17.2779 25.4583 17.9251 24.9829 18.4038L23.2003 20.1864L19.5817 16.6034L21.3821 14.8029ZM9.98537 18.4038C9.50859 17.9259 9.24083 17.2784 9.24083 16.6034C9.24083 15.9283 9.50859 15.2808 9.98537 14.8029C10.463 14.328 11.1092 14.0613 11.7828 14.0613C12.4564 14.0613 13.1026 14.328 13.5803 14.8029L15.3629 16.5855L11.7977 20.1804L9.98537 18.4038ZM3.36601 33.5261C3.37086 32.8576 3.63751 32.2177 4.10876 31.7435L5.89135 29.9609L9.66451 33.7281L6.08149 37.2993L4.10876 35.3265C3.87273 35.0899 3.68565 34.8092 3.5582 34.5002C3.43076 34.1913 3.36545 33.8603 3.36601 33.5261ZM9.98537 41.2031L8.20278 39.4205L11.8036 35.8197L15.3688 39.4205L13.5862 41.2031C13.1083 41.6799 12.4608 41.9477 11.7858 41.9477C11.1107 41.9477 10.4633 41.6799 9.98537 41.2031ZM24.9829 41.2031C24.5043 41.6785 23.8571 41.9452 23.1825 41.9452C22.5079 41.9452 21.8607 41.6785 21.3821 41.2031L19.5995 39.4205L21.9763 37.0438L23.1647 35.8554L24.9473 37.638C25.4181 38.1096 25.6854 38.7469 25.6921 39.4133C25.6987 40.0797 25.4442 40.7222 24.9829 41.2031Z" fill="#090909"/>
    </g>
    <path d="M56.0984 35H47.1785V20.8044H55.6958C58.5985 20.8044 60.1664 22.0332 60.1664 24.2579C60.1664 26.0165 59.2342 27.2877 56.8612 27.4572V27.6479C59.4884 27.8386 60.7597 29.1522 60.7597 31.0591C60.7597 33.4745 59.2765 35 56.0984 35ZM50.3566 23.6647V26.4402H55.3357C56.501 26.4402 56.9883 26.0377 56.9883 25.0631C56.9883 24.0884 56.4798 23.6647 55.2933 23.6647H50.3566ZM50.3566 29.0675V32.1397H55.717C57.0095 32.1397 57.5392 31.7371 57.5392 30.593C57.5392 29.4701 57.0095 29.0675 55.717 29.0675H50.3566ZM69.2423 35.2119C64.5386 35.2119 61.6148 32.3304 61.6148 27.9022C61.6148 23.474 64.5386 20.5925 69.2423 20.5925C74.0518 20.5925 76.9545 23.474 76.9545 27.9022C76.9545 32.3304 74.0518 35.2119 69.2423 35.2119ZM69.2423 32.1609C72.3568 32.1609 73.5645 31.0591 73.5645 27.9022C73.5645 24.7452 72.3568 23.6435 69.2423 23.6435C66.1277 23.6435 64.9836 24.7452 64.9836 27.9022C64.9836 31.0591 66.1277 32.1609 69.2423 32.1609ZM84.7815 35.2119C80.4804 35.2119 78.065 33.5169 78.065 30.2116V30.0845H81.2432V30.4659C81.2432 31.7795 81.9 32.3092 84.7815 32.3092C87.324 32.3092 87.9172 31.9278 87.9172 30.9744C87.9172 30.1057 87.4299 29.7879 85.968 29.5336L81.9847 28.9616C79.4422 28.559 77.9379 27.2877 77.9379 24.9783C77.9379 22.8384 79.6753 20.5925 84.4425 20.5925C88.8071 20.5925 90.8411 22.6053 90.8411 25.5927V25.7199H87.6418V25.4232C87.6418 24.0672 86.9426 23.4952 84.1247 23.4952C81.8364 23.4952 81.1372 23.9401 81.1372 24.8512C81.1372 25.6775 81.6034 25.9741 82.7899 26.186L86.7731 26.8216C89.9512 27.3301 91.0954 28.8768 91.0954 30.8261C91.0954 33.1355 89.2944 35.2119 84.7815 35.2119ZM94.9957 35H91.4362L97.6441 20.8044H102.178L108.429 35H104.784L103.449 31.8642H96.3517L94.9957 35ZM98.9154 25.9106L97.5806 29.0039H102.221L100.886 25.9106L100.017 23.7071H99.7841L98.9154 25.9106ZM112.348 35H109.17V20.8044H117.009C120.505 20.8044 122.497 22.3511 122.497 25.0631C122.497 27.3725 121.162 28.7497 118.492 29.0039V29.1734C119.764 29.5124 120.251 30.1904 120.781 31.1862L122.836 35H119.149L117.2 31.3134C116.628 30.2116 116.098 29.8514 114.446 29.8514H112.348V35ZM112.348 23.6647V27.4572H116.988C118.492 27.4572 119.17 27.0335 119.17 25.5504C119.17 24.152 118.492 23.6647 116.988 23.6647H112.348Z" fill="#090909"/>
    <defs>
    <clipPath id="clip0_41_881">
    <rect width="34" height="33.8217" fill="white" transform="translate(0.394531 11.0891)"/>
    </clipPath>
    </defs>
    </svg>
    