<svg xmlns="http://www.w3.org/2000/svg" xmlns:xlink="http://www.w3.org/1999/xlink" width="120" zoomAndPan="magnify" viewBox="0 0 90 44.999999" height="60" preserveAspectRatio="xMidYMid meet" version="1.0"><defs><clipPath id="6cb1ce06b5"><path d="M 20 5 L 59 5 L 59 18 L 20 18 Z M 20 5 " clip-rule="nonzero"/></clipPath><clipPath id="7f226ab64b"><path d="M 53.195312 -15.992188 L 83.425781 14.238281 L 36.757812 60.90625 L 6.527344 30.679688 Z M 53.195312 -15.992188 " clip-rule="nonzero"/></clipPath><clipPath id="2061339114"><path d="M 53.195312 -15.992188 L 83.425781 14.238281 L 36.757812 60.90625 L 6.527344 30.679688 Z M 53.195312 -15.992188 " clip-rule="nonzero"/></clipPath><clipPath id="d91e761a06"><path d="M 31 27 L 70 27 L 70 40 L 31 40 Z M 31 27 " clip-rule="nonzero"/></clipPath><clipPath id="99d26ef7ba"><path d="M 53.195312 -15.992188 L 83.425781 14.238281 L 36.757812 60.90625 L 6.527344 30.679688 Z M 53.195312 -15.992188 " clip-rule="nonzero"/></clipPath><clipPath id="4b9f5f9a65"><path d="M 53.195312 -15.992188 L 83.425781 14.238281 L 36.757812 60.90625 L 6.527344 30.679688 Z M 53.195312 -15.992188 " clip-rule="nonzero"/></clipPath><clipPath id="d3ccc7921f"><path d="M 20 18 L 32 18 L 32 45 L 20 45 Z M 20 18 " clip-rule="nonzero"/></clipPath><clipPath id="c4ba11cab8"><path d="M 53.195312 -15.992188 L 83.425781 14.238281 L 36.757812 60.90625 L 6.527344 30.679688 Z M 53.195312 -15.992188 " clip-rule="nonzero"/></clipPath><clipPath id="e282c22300"><path d="M 53.195312 -15.992188 L 83.425781 14.238281 L 36.757812 60.90625 L 6.527344 30.679688 Z M 53.195312 -15.992188 " clip-rule="nonzero"/></clipPath><clipPath id="1374d3dbee"><path d="M 58 0 L 70 0 L 70 27 L 58 27 Z M 58 0 " clip-rule="nonzero"/></clipPath><clipPath id="7e43a94567"><path d="M 53.195312 -15.992188 L 83.425781 14.238281 L 36.757812 60.90625 L 6.527344 30.679688 Z M 53.195312 -15.992188 " clip-rule="nonzero"/></clipPath><clipPath id="c347b03058"><path d="M 53.195312 -15.992188 L 83.425781 14.238281 L 36.757812 60.90625 L 6.527344 30.679688 Z M 53.195312 -15.992188 " clip-rule="nonzero"/></clipPath><clipPath id="cd0f9a855a"><path d="M 45 30.601562 L 51 30.601562 L 51 36.300781 L 45 36.300781 Z M 45 30.601562 " clip-rule="nonzero"/></clipPath><clipPath id="bbf802a282"><path d="M 47.25 30.601562 L 48.75 30.601562 C 49.992188 30.601562 51 31.605469 51 32.851562 L 51 34.050781 C 51 35.292969 49.992188 36.300781 48.75 36.300781 L 47.25 36.300781 C 46.007812 36.300781 45 35.292969 45 34.050781 L 45 32.851562 C 45 31.605469 46.007812 30.601562 47.25 30.601562 Z M 47.25 30.601562 " clip-rule="nonzero"/></clipPath></defs><g clip-path="url(#6cb1ce06b5)"><g clip-path="url(#7f226ab64b)"><g clip-path="url(#2061339114)"><path fill="#090909" d="M 20.085938 17.132812 L 47.222656 17.132812 L 58.832031 5.523438 L 31.695312 5.523438 Z M 20.085938 17.132812 " fill-opacity="1" fill-rule="nonzero"/></g></g></g><g clip-path="url(#d91e761a06)"><g clip-path="url(#99d26ef7ba)"><g clip-path="url(#4b9f5f9a65)"><path fill="#090909" d="M 58.300781 27.859375 L 42.773438 27.859375 L 31.164062 39.46875 L 58.300781 39.46875 L 69.910156 27.859375 Z M 58.300781 27.859375 " fill-opacity="1" fill-rule="nonzero"/></g></g></g><g clip-path="url(#d3ccc7921f)"><g clip-path="url(#c4ba11cab8)"><g clip-path="url(#e282c22300)"><path fill="#090909" d="M 20.085938 18.980469 L 20.085938 44.269531 L 31.695312 32.660156 L 31.695312 18.980469 Z M 20.085938 18.980469 " fill-opacity="1" fill-rule="nonzero"/></g></g></g><g clip-path="url(#1374d3dbee)"><g clip-path="url(#7e43a94567)"><g clip-path="url(#c347b03058)"><path fill="#090909" d="M 69.910156 0.722656 L 58.300781 12.332031 L 58.300781 26.011719 L 69.910156 26.011719 Z M 69.910156 0.722656 " fill-opacity="1" fill-rule="nonzero"/></g></g></g><g clip-path="url(#cd0f9a855a)"><g clip-path="url(#bbf802a282)"><path fill="#090909" d="M 45 30.601562 L 50.988281 30.601562 L 50.988281 36.300781 L 45 36.300781 Z M 45 30.601562 " fill-opacity="1" fill-rule="nonzero"/></g></g></svg>